# Blender 3.4.1
# www.blender.org
mtllib door2.mtl
g door2_Mesh
v -3.714035 2.000318 -6.111476
v -3.698869 0.949442 -6.111477
v -2.662397 2.000318 -6.111470
v -2.677563 0.949442 -6.111470
v -3.714034 2.000318 -6.204040
v -3.698868 0.949442 -6.204040
v -2.662396 2.000318 -6.204032
v -2.677562 0.949442 -6.204033
v -3.699374 1.969505 -6.111476
v -3.695621 1.961618 -6.122688
v -3.670178 1.984516 -6.122688
v -3.680579 1.988264 -6.111476
v -3.688169 1.977810 -6.122688
v -3.694019 1.982901 -6.111476
v -3.683944 0.961256 -6.111477
v -3.670178 0.972153 -6.122689
v -3.695621 0.995051 -6.122689
v -3.697254 0.972118 -6.111477
v -3.688169 0.978859 -6.122689
v -3.693349 0.964617 -6.111477
v -2.695853 1.988264 -6.111470
v -2.706253 1.984516 -6.122683
v -2.680811 1.961618 -6.122683
v -2.677058 1.969505 -6.111470
v -2.688263 1.977810 -6.122683
v -2.682413 1.982901 -6.111470
v -2.679178 0.972118 -6.111470
v -2.680811 0.995051 -6.122683
v -2.706253 0.972153 -6.122683
v -2.692488 0.961256 -6.111470
v -2.688263 0.978859 -6.122683
v -2.683083 0.964617 -6.111470
v -3.680578 1.988264 -6.204040
v -3.670177 1.984516 -6.192827
v -3.695620 1.961618 -6.192827
v -3.699373 1.969505 -6.204040
v -3.688168 1.977810 -6.192827
v -3.694018 1.982901 -6.204040
v -3.697253 0.972118 -6.204040
v -3.695620 0.995051 -6.192827
v -3.670177 0.972153 -6.192827
v -3.683943 0.961256 -6.204040
v -3.688168 0.978859 -6.192827
v -3.693348 0.964617 -6.204040
v -2.677057 1.969505 -6.204032
v -2.680810 1.961618 -6.192821
v -2.706252 1.984516 -6.192821
v -2.695852 1.988264 -6.204032
v -2.688262 1.977810 -6.192821
v -2.682411 1.982901 -6.204032
v -2.692487 0.961256 -6.204033
v -2.706252 0.972153 -6.192821
v -2.680810 0.995051 -6.192821
v -2.679177 0.972118 -6.204033
v -2.688262 0.978859 -6.192821
v -2.683082 0.964617 -6.204033
v -2.544569 0.019411 -6.111468
v -2.542715 0.006443 -6.121269
v -2.543258 0.010241 -6.114338
v -2.542715 2.146313 -6.121269
v -2.545301 2.143157 -6.111467
v -2.543472 2.145389 -6.114337
v -3.831130 2.143157 -6.111477
v -3.833717 2.146313 -6.121278
v -3.832959 2.145389 -6.114347
v -3.833717 0.006443 -6.121279
v -3.831863 0.019411 -6.111478
v -3.833174 0.010241 -6.114347
v -3.833716 2.146313 -6.194241
v -3.831129 2.143157 -6.204041
v -3.832958 2.145389 -6.201171
v -3.831861 0.019411 -6.204041
v -3.833716 0.006443 -6.194241
v -3.833173 0.010241 -6.201172
v -2.545300 2.143157 -6.204031
v -2.542714 2.146313 -6.194231
v -2.543471 2.145389 -6.201161
v -2.542714 0.006443 -6.194231
v -2.544568 0.019411 -6.204032
v -2.543257 0.010241 -6.201162
vn -0.4827 -0.1033 0.8697
vn 0.4838 -0.1058 0.8688
vn -0.0000 -0.0000 1.0000
vn 0.3354 0.1325 -0.9327
vn 0.1480 0.1995 -0.9687
vn -0.0000 -0.0000 -1.0000
vn 0.6184 -0.7587 0.2051
vn -0.6181 -0.7578 -0.2090
vn 0.6204 -0.7559 -0.2088
vn 0.2454 -0.2546 -0.9354
vn 0.4336 -0.1205 -0.8930
vn -0.2454 -0.2546 -0.9354
vn -0.1114 -0.4445 -0.8888
vn -0.4339 -0.1205 -0.8928
vn -0.3789 0.3616 0.8518
vn 0.1113 -0.4445 0.8889
vn -0.3377 0.1283 0.9325
vn -0.1480 0.1995 0.9687
vn 0.6987 0.7017 0.1394
vn -0.6608 0.7460 -0.0827
vn -0.6607 0.7460 0.0829
vn 0.4830 -0.1033 -0.8695
vn -0.4831 -0.1059 -0.8692
vn 0.6445 -0.6928 -0.3233
vn 0.1381 -0.9685 0.2071
vn 0.6414 -0.6984 0.3174
vn 0.0661 0.2935 0.9537
vn 0.1480 0.1995 0.9687
vn 0.9803 0.1398 -0.1395
vn 0.6202 0.6238 0.4757
vn 0.6202 0.6237 -0.4757
vn 0.9624 -0.1740 -0.2085
vn 0.9625 -0.1747 0.2076
vn -0.1383 -0.9686 0.2068
vn 0.1336 -0.9693 -0.2063
vn -0.1382 -0.9685 -0.2072
vn -0.1099 -0.4478 0.8873
vn -0.2454 -0.2546 0.9354
vn 0.1335 0.8952 0.4253
vn 0.1334 0.8953 -0.4251
vn -0.6445 -0.6929 0.3233
vn -0.6414 -0.6984 -0.3174
vn -0.9624 -0.1738 0.2085
vn -0.9803 0.1397 -0.1398
vn -0.9803 0.1397 0.1398
vn 0.1113 -0.4443 -0.8889
vn 0.3791 0.3617 -0.8518
vn 0.0706 0.2953 -0.9528
vn -0.0662 0.2935 -0.9537
vn -0.1479 0.1995 -0.9687
vn -0.3524 0.1342 -0.9262
vn -0.6206 0.6224 -0.4770
vn 0.2454 -0.2546 0.9354
vn -0.4671 -0.1169 0.8765
vn 0.9806 0.1375 0.1398
vn -0.0706 0.2952 0.9528
vn -0.9628 -0.1739 -0.2067
vn 0.3529 0.1341 0.9260
vn -0.1347 0.8952 -0.4248
vn -0.6241 0.6264 0.4670
vn -0.6696 -0.7274 0.1503
vn 0.4670 -0.1182 0.8763
vn -0.5706 -0.4991 0.6522
vn -0.6029 0.6792 0.4186
vn 0.6038 0.6786 0.4182
vn 0.3749 0.3374 0.8635
vn 0.5705 -0.4990 0.6523
vn -0.6033 0.6790 -0.4183
vn -0.3747 0.3372 -0.8636
vn -0.5711 -0.4987 -0.6520
vn 0.7414 0.6649 -0.0900
vn 0.5701 -0.4994 -0.6524
vn 0.6033 0.6789 -0.4185
vn -0.1299 0.8993 0.4176
vt 1.116419 0.314111
vt 1.090845 0.757736
vt -0.100310 -0.000110
vt -0.076005 0.062496
vt 1.116419 0.314111
vt 1.090845 0.757736
vt -0.100310 -0.000110
vt -0.076005 0.062496
vt 1.086701 0.321158
vt 1.092751 0.322249
vt 1.086693 0.324332
vt 1.057700 0.307396
vt 1.093760 0.314829
vt 1.071625 0.308989
vt 1.069644 0.310548
vt 1.086716 0.315052
vt 1.093429 0.316943
vt 1.086716 0.315052
vt 1.073057 0.741167
vt 1.068688 0.732935
vt 1.056652 0.725885
vt 1.085668 0.733587
vt 1.088260 0.750343
vt 1.085644 0.742867
vt 1.088271 0.745729
vt 1.085644 0.742867
vt 1.083782 0.747500
vt 1.085644 0.742867
vt 1.083753 0.741759
vt -0.053561 0.014185
vt -0.055537 0.013199
vt -0.041618 0.017337
vt -0.070637 0.010892
vt -0.076682 0.007685
vt -0.070636 0.010478
vt -0.076684 0.008650
vt -0.070634 0.009681
vt -0.070770 0.009201
vt -0.070634 0.009681
vt -0.073403 0.063405
vt -0.070771 0.064325
vt -0.041781 0.082518
vt -0.073284 0.064077
vt -0.053818 0.075468
vt -0.058201 0.072912
vt -0.070774 0.065536
vt -0.068883 0.066644
vt -0.073306 0.063881
vt 1.071625 0.308989
vt 1.057700 0.307396
vt 1.086716 0.315052
vt 1.086693 0.324332
vt 1.092770 0.314861
vt 1.092751 0.322249
vt 1.086716 0.315052
vt 1.078217 0.312810
vt 1.086858 0.313104
vt 1.088271 0.745729
vt 1.085667 0.733587
vt 1.085644 0.742867
vt 1.056652 0.725885
vt 1.088140 0.750001
vt 1.073057 0.741167
vt 1.085644 0.742867
vt 1.085651 0.740149
vt 1.088166 0.748663
vt -0.076684 0.008650
vt -0.070637 0.010892
vt -0.070634 0.009681
vt -0.041618 0.017337
vt -0.077672 0.007359
vt -0.055537 0.013199
vt -0.070634 0.009681
vt -0.070635 0.010036
vt -0.077347 0.007741
vt -0.058201 0.072912
vt -0.041781 0.082518
vt -0.070774 0.065536
vt -0.070771 0.064325
vt -0.073404 0.064008
vt -0.073403 0.063405
vt -0.070774 0.065536
vt -0.062282 0.070510
vt -0.068926 0.066630
vt -0.290208 -0.062009
vt -0.293195 -0.063745
vt -0.292858 -0.063443
vt -0.293195 -0.063745
vt -0.289026 -0.062370
vt -0.292724 -0.063636
vt 1.305305 0.308126
vt 1.309478 0.307993
vt 1.309008 0.308115
vt 1.306805 1.375125
vt 1.303835 1.366635
vt 1.306471 1.373876
vt 1.309478 0.307993
vt 1.305305 0.308126
vt 1.309008 0.308115
vt 1.303835 1.366635
vt 1.306805 1.375125
vt 1.306471 1.373876
vt -0.289026 -0.062370
vt -0.293195 -0.063745
vt -0.292724 -0.063636
vt -0.293195 -0.063745
vt -0.290208 -0.062009
vt -0.292858 -0.063443
s 1
g door2_Material.007
usemtl Material.007
f 67/95/1 57/85/2 4/4/3
f 39/58/4 44/66/5 6/6/6
f 58/86/7 73/101/8 78/106/9
f 38/57/10 36/53/11 5/5/6
f 50/75/12 48/71/13 7/7/6
f 45/67/14 50/75/12 7/7/6
f 3/3/3 63/91/15 12/14/16
f 27/40/17 32/48/18 4/4/3
f 60/88/19 69/97/20 64/92/21
f 6/6/6 79/107/22 72/100/23
f 37/55/24 11/12/25 13/16/26
f 15/19/27 20/27/28 2/2/3
f 40/59/29 19/26/30 43/64/31
f 35/52/32 13/16/26 10/11/33
f 22/32/34 34/50/35 47/70/36
f 21/31/37 26/38/38 3/3/3
f 43/64/31 16/21/39 41/61/40
f 25/37/41 47/70/36 49/73/42
f 23/33/43 53/79/44 28/41/45
f 33/49/46 38/57/10 5/5/6
f 48/72/13 5/5/6 75/103/47
f 44/66/5 42/62/48 6/6/6
f 51/76/49 56/84/50 8/8/6
f 56/84/50 54/80/51 8/8/6
f 55/82/52 28/41/45 53/79/44
f 14/17/53 12/13/16 1/1/3
f 26/38/38 24/34/54 3/3/3
f 17/22/55 35/52/32 10/11/33
f 32/48/18 30/43/56 4/4/3
f 23/33/43 49/73/42 46/68/57
f 20/27/28 18/23/58 2/2/3
f 52/77/59 31/46/60 55/82/52
f 64/92/21 73/101/8 66/94/61
f 13/16/26 9/9/62 10/11/33
f 13/16/26 12/15/16 14/18/53
f 19/26/30 15/20/27 16/21/39
f 19/26/30 18/24/58 20/28/28
f 25/37/41 21/30/37 22/32/34
f 25/37/41 24/35/54 26/39/38
f 31/46/60 27/40/17 28/41/45
f 31/46/60 30/44/56 32/47/18
f 37/56/24 33/49/46 34/50/35
f 37/56/24 36/53/11 38/57/10
f 43/65/31 39/58/4 40/59/29
f 43/65/31 42/62/48 44/66/5
f 49/73/42 45/67/14 46/68/57
f 49/74/42 48/71/13 50/75/12
f 55/83/52 51/76/49 52/77/59
f 55/83/52 54/80/51 56/84/50
f 9/10/62 17/22/55 10/11/33
f 36/54/11 40/59/29 39/58/4
f 11/12/25 21/31/37 12/14/16
f 48/72/13 34/50/35 33/49/46
f 30/45/56 16/21/39 15/19/27
f 51/76/49 41/61/40 52/77/59
f 24/36/54 28/41/45 27/40/17
f 45/67/14 53/79/44 46/68/57
f 9/10/62 14/17/53 1/1/3
f 64/92/21 68/96/63 65/93/64
f 65/93/64 67/95/1 63/91/15
f 57/85/2 62/90/65 61/89/66
f 59/87/67 60/88/19 62/90/65
f 67/95/1 59/87/67 57/85/2
f 68/96/63 58/86/7 59/87/67
f 61/89/66 65/93/64 63/91/15
f 65/93/64 60/88/19 64/92/21
f 72/100/23 71/99/68 70/98/69
f 74/102/70 69/97/20 71/99/68
f 76/104/71 80/108/72 77/105/73
f 77/105/73 79/107/22 75/103/47
f 73/101/8 80/108/72 78/106/9
f 80/108/72 72/100/23 79/107/22
f 76/104/71 71/99/68 69/97/20
f 77/105/73 70/98/69 71/99/68
f 58/86/7 76/104/71 60/88/19
f 29/42/74 41/61/40 16/21/39
f 30/45/56 15/19/27 2/2/3
f 2/2/3 18/25/58 9/10/62
f 9/10/62 1/1/3 63/91/15
f 57/85/2 61/89/66 3/3/3
f 3/3/3 24/36/54 27/40/17
f 4/4/3 30/45/56 2/2/3
f 3/3/3 27/40/17 4/4/3
f 9/10/62 63/91/15 67/95/1
f 2/2/3 9/10/62 67/95/1
f 57/85/2 3/3/3 4/4/3
f 4/4/3 2/2/3 67/95/1
f 58/86/7 66/94/61 73/101/8
f 12/14/16 21/31/37 3/3/3
f 3/3/3 61/89/66 63/91/15
f 63/91/15 1/1/3 12/14/16
f 60/88/19 76/104/71 69/97/20
f 6/6/6 42/63/48 51/76/49
f 8/8/6 54/81/51 45/67/14
f 6/6/6 51/76/49 8/8/6
f 36/54/11 39/58/4 6/6/6
f 70/98/69 5/5/6 36/54/11
f 7/7/6 75/103/47 79/107/22
f 8/8/6 45/67/14 7/7/6
f 70/98/69 36/54/11 6/6/6
f 8/8/6 7/7/6 79/107/22
f 72/100/23 70/98/69 6/6/6
f 6/6/6 8/8/6 79/107/22
f 37/55/24 34/50/35 11/12/25
f 40/59/29 17/22/55 19/26/30
f 35/52/32 37/55/24 13/16/26
f 22/32/34 11/12/25 34/50/35
f 43/64/31 19/26/30 16/21/39
f 25/37/41 22/32/34 47/70/36
f 23/33/43 46/68/57 53/79/44
f 75/103/47 7/7/6 48/72/13
f 48/72/13 33/49/46 5/5/6
f 5/5/6 70/98/69 75/103/47
f 55/82/52 31/46/60 28/41/45
f 17/22/55 40/59/29 35/52/32
f 23/33/43 25/37/41 49/73/42
f 52/77/59 29/42/74 31/46/60
f 64/92/21 69/97/20 73/101/8
f 13/16/26 14/18/53 9/9/62
f 13/16/26 11/12/25 12/15/16
f 19/26/30 20/29/28 15/20/27
f 19/26/30 17/22/55 18/24/58
f 25/37/41 26/39/38 21/30/37
f 25/37/41 23/33/43 24/35/54
f 31/46/60 32/48/18 27/40/17
f 31/46/60 29/42/74 30/44/56
f 37/56/24 38/57/10 33/49/46
f 37/56/24 35/51/32 36/53/11
f 43/65/31 44/66/5 39/58/4
f 43/65/31 41/60/40 42/62/48
f 49/73/42 50/75/12 45/67/14
f 49/74/42 47/69/36 48/71/13
f 55/83/52 56/84/50 51/76/49
f 55/83/52 53/78/44 54/80/51
f 9/10/62 18/25/58 17/22/55
f 36/54/11 35/52/32 40/59/29
f 11/12/25 22/32/34 21/31/37
f 48/72/13 47/70/36 34/50/35
f 30/45/56 29/42/74 16/21/39
f 51/76/49 42/63/48 41/61/40
f 24/36/54 23/33/43 28/41/45
f 45/67/14 54/81/51 53/79/44
f 64/92/21 66/94/61 68/96/63
f 65/93/64 68/96/63 67/95/1
f 57/85/2 59/87/67 62/90/65
f 59/87/67 58/86/7 60/88/19
f 67/95/1 68/96/63 59/87/67
f 68/96/63 66/94/61 58/86/7
f 61/89/66 62/90/65 65/93/64
f 65/93/64 62/90/65 60/88/19
f 72/100/23 74/102/70 71/99/68
f 74/102/70 73/101/8 69/97/20
f 76/104/71 78/106/9 80/108/72
f 77/105/73 80/108/72 79/107/22
f 73/101/8 74/102/70 80/108/72
f 80/108/72 74/102/70 72/100/23
f 76/104/71 77/105/73 71/99/68
f 77/105/73 75/103/47 70/98/69
f 58/86/7 78/106/9 76/104/71
f 29/42/74 52/77/59 41/61/40
