# Blender 3.5.0
# www.blender.org
mtllib faceSet.mtl
g Plane.001_Mesh
v -1.306203 0.370159 -7.475909
v -1.014689 0.370159 -7.475909
v -1.306203 0.635601 -7.475909
v -1.014689 0.635601 -7.475909
v -1.596545 0.370159 -7.475909
v -1.305031 0.370159 -7.475909
v -1.596545 0.635601 -7.475909
v -1.305031 0.635601 -7.475909
v -1.886887 0.370159 -7.475909
v -1.595373 0.370159 -7.475909
v -1.886887 0.635601 -7.475909
v -1.595373 0.635601 -7.475909
v -2.177229 0.370159 -7.475909
v -1.885715 0.370159 -7.475909
v -2.177229 0.635601 -7.475909
v -1.885715 0.635601 -7.475909
v -2.467571 0.370159 -7.475909
v -2.176057 0.370159 -7.475909
v -2.467571 0.635601 -7.475909
v -2.176057 0.635601 -7.475909
vn -0.0000 -0.0000 1.0000
vt 0.000000 0.000000
vt 1.000000 0.000000
vt 0.000000 1.000000
vt 1.000000 1.000000
vt 0.000000 0.000000
vt 1.000000 0.000000
vt 0.000000 1.000000
vt 1.000000 1.000000
vt 0.000000 0.000000
vt 1.000000 0.000000
vt 0.000000 1.000000
vt 1.000000 1.000000
vt 0.000000 0.000000
vt 1.000000 0.000000
vt 0.000000 1.000000
vt 1.000000 1.000000
vt 0.000000 0.000000
vt 1.000000 0.000000
vt 0.000000 1.000000
vt 1.000000 1.000000
s 0
g Plane.001_face0
usemtl face1
f 18/18/1 19/19/1 17/17/1
f 18/18/1 20/20/1 19/19/1
g Plane.001_face1
usemtl face2
f 14/14/1 15/15/1 13/13/1
f 14/14/1 16/16/1 15/15/1
g Plane.001_face2
usemtl face3
f 10/10/1 11/11/1 9/9/1
f 10/10/1 12/12/1 11/11/1
g Plane.001_face3
usemtl face4
f 6/6/1 7/7/1 5/5/1
f 6/6/1 8/8/1 7/7/1
g Plane.001_face4
usemtl face0
f 2/2/1 3/3/1 1/1/1
f 2/2/1 4/4/1 3/3/1
