# Blender 3.4.1
# www.blender.org
mtllib hightable.mtl
g joined_Cube.008
v -30.000000 0.000000 75.000000
v -30.000000 60.000000 75.000000
v -30.000000 0.000000 73.000000
v -30.000000 60.000000 73.000000
v 30.000000 0.000000 75.000000
v 30.000000 60.000000 75.000000
v 30.000000 0.000000 73.000000
v 30.000000 60.000000 73.000000
v -30.000000 0.000000 -73.000000
v -30.000000 60.000000 -73.000000
v -30.000000 0.000000 -75.000000
v -30.000000 60.000000 -75.000000
v 30.000000 0.000000 -73.000000
v 30.000000 60.000000 -73.000000
v 30.000000 0.000000 -75.000000
v 30.000000 60.000000 -75.000000
v 4.000000 62.000000 75.000000
v 4.000000 62.000011 -75.000000
v 4.000000 60.000000 75.000000
v 4.000000 60.000011 -75.000000
v 30.000004 62.000000 75.000000
v 30.000004 62.000011 -75.000000
v 30.000004 60.000000 75.000000
v 30.000004 60.000011 -75.000000
v 0.999992 60.000000 73.000000
v 1.000003 60.000000 -73.000000
v -1.000008 60.000000 73.000000
v -0.999997 60.000000 -73.000000
v 0.999997 0.000000 73.000000
v 1.000008 0.000000 -73.000000
v -1.000003 0.000000 73.000000
v -0.999992 0.000000 -73.000000
v -30.000004 62.000000 75.000000
v -30.000004 62.000011 -75.000000
v -30.000004 60.000000 75.000000
v -30.000004 60.000011 -75.000000
v -4.000000 62.000000 75.000000
v -4.000000 62.000011 -75.000000
v -4.000000 60.000000 75.000000
v -4.000000 60.000011 -75.000000
v -4.000000 61.400002 75.000000
v -4.000000 61.400013 -75.000000
v -4.000000 60.000000 75.000000
v -4.000000 60.000011 -75.000000
v 4.000000 61.400002 75.000000
v 4.000000 61.400013 -75.000000
v 4.000000 60.000000 75.000000
v 4.000000 60.000011 -75.000000
vn -1.0000 -0.0000 -0.0000
vn -0.0000 -0.0000 -1.0000
vn 1.0000 -0.0000 -0.0000
vn -0.0000 -0.0000 1.0000
vn -0.0000 -1.0000 -0.0000
vn -0.0000 1.0000 -0.0000
vt 0.375000 0.000000
vt 0.375000 1.000000
vt 0.125000 0.750000
vt 0.625000 0.000000
vt 0.625000 1.000000
vt 0.875000 0.750000
vt 0.375000 0.250000
vt 0.125000 0.500000
vt 0.625000 0.250000
vt 0.875000 0.500000
vt 0.375000 0.750000
vt 0.625000 0.750000
vt 0.375000 0.500000
vt 0.625000 0.500000
vt 0.375000 0.000000
vt 0.375000 1.000000
vt 0.125000 0.750000
vt 0.625000 0.000000
vt 0.625000 1.000000
vt 0.875000 0.750000
vt 0.375000 0.250000
vt 0.125000 0.500000
vt 0.625000 0.250000
vt 0.875000 0.500000
vt 0.375000 0.750000
vt 0.625000 0.750000
vt 0.375000 0.500000
vt 0.625000 0.500000
vt 0.375000 0.000000
vt 0.375000 1.000000
vt 0.125000 0.750000
vt 0.625000 0.000000
vt 0.625000 1.000000
vt 0.875000 0.750000
vt 0.375000 0.250000
vt 0.125000 0.500000
vt 0.625000 0.250000
vt 0.875000 0.500000
vt 0.375000 0.750000
vt 0.625000 0.750000
vt 0.375000 0.500000
vt 0.625000 0.500000
vt 0.375000 0.000000
vt 0.375000 1.000000
vt 0.125000 0.750000
vt 0.625000 0.000000
vt 0.625000 1.000000
vt 0.875000 0.750000
vt 0.375000 0.250000
vt 0.125000 0.500000
vt 0.625000 0.250000
vt 0.875000 0.500000
vt 0.375000 0.750000
vt 0.625000 0.750000
vt 0.375000 0.500000
vt 0.625000 0.500000
vt 0.375000 0.000000
vt 0.375000 1.000000
vt 0.125000 0.750000
vt 0.625000 0.000000
vt 0.625000 1.000000
vt 0.875000 0.750000
vt 0.375000 0.250000
vt 0.125000 0.500000
vt 0.625000 0.250000
vt 0.875000 0.500000
vt 0.375000 0.750000
vt 0.625000 0.750000
vt 0.375000 0.500000
vt 0.625000 0.500000
vt 0.375000 0.000000
vt 0.375000 1.000000
vt 0.125000 0.750000
vt 0.625000 0.000000
vt 0.625000 1.000000
vt 0.875000 0.750000
vt 0.375000 0.250000
vt 0.125000 0.500000
vt 0.625000 0.250000
vt 0.875000 0.500000
vt 0.375000 0.750000
vt 0.625000 0.750000
vt 0.375000 0.500000
vt 0.625000 0.500000
s 0
g joined_Material.007
usemtl Material.007
f 1/1/1 2/4/1 4/9/1 3/7/1
f 3/7/2 4/9/2 8/14/2 7/13/2
f 7/13/3 8/14/3 6/12/3 5/11/3
f 5/11/4 6/12/4 2/5/4 1/2/4
f 3/8/5 7/13/5 5/11/5 1/3/5
f 8/14/6 4/10/6 2/6/6 6/12/6
f 9/15/1 10/18/1 12/23/1 11/21/1
f 11/21/2 12/23/2 16/28/2 15/27/2
f 15/27/3 16/28/3 14/26/3 13/25/3
f 13/25/4 14/26/4 10/19/4 9/16/4
f 11/22/5 15/27/5 13/25/5 9/17/5
f 16/28/6 12/24/6 10/20/6 14/26/6
f 17/29/1 18/32/1 20/37/1 19/35/1
f 19/35/5 20/37/5 24/42/5 23/41/5
f 23/41/3 24/42/3 22/40/3 21/39/3
f 21/39/6 22/40/6 18/33/6 17/30/6
f 19/36/4 23/41/4 21/39/4 17/31/4
f 24/42/2 20/38/2 18/34/2 22/40/2
f 25/43/6 26/46/6 28/51/6 27/49/6
f 27/49/1 28/51/1 32/56/1 31/55/1
f 31/55/5 32/56/5 30/54/5 29/53/5
f 29/53/3 30/54/3 26/47/3 25/44/3
f 27/50/4 31/55/4 29/53/4 25/45/4
f 32/56/2 28/52/2 26/48/2 30/54/2
f 33/57/1 34/60/1 36/65/1 35/63/1
f 35/63/5 36/65/5 40/70/5 39/69/5
f 39/69/3 40/70/3 38/68/3 37/67/3
f 37/67/6 38/68/6 34/61/6 33/58/6
f 35/64/4 39/69/4 37/67/4 33/59/4
f 40/70/2 36/66/2 34/62/2 38/68/2
g joined_Material.005
usemtl Material.005
f 41/71/1 42/74/1 44/79/1 43/77/1
f 43/77/5 44/79/5 48/84/5 47/83/5
f 47/83/3 48/84/3 46/82/3 45/81/3
f 45/81/6 46/82/6 42/75/6 41/72/6
f 43/78/4 47/83/4 45/81/4 41/73/4
f 48/84/2 44/80/2 42/76/2 46/82/2
