# Blender 3.5.0
# www.blender.org
mtllib posterSet.mtl
g Plane_Mesh
v 2.511725 -0.159597 -4.052546
v 2.511725 -0.159597 -3.652944
v 2.511725 0.360488 -4.052546
v 2.511725 0.360488 -3.652944
v 2.511725 -0.354108 -1.981073
v 2.511725 -0.354108 -1.606002
v 2.511725 0.146232 -1.981073
v 2.511725 0.146232 -1.606002
v 2.511725 -0.354214 -1.331190
v 2.511725 -0.354214 -0.960006
v 2.511725 0.134805 -1.331190
v 2.511725 0.134805 -0.960006
v 2.511725 -0.349721 -0.058316
v 2.511725 -0.349721 0.308580
v 2.511725 0.142856 -0.058316
v 2.511725 0.142856 0.308580
v 2.511725 -0.332805 2.878696
v 2.511725 -0.332805 3.263089
v 2.511725 0.008471 2.878696
v 2.511725 0.008471 3.263089
v 2.511725 -0.332805 3.392379
v 2.511725 -0.332805 3.776771
v 2.511725 0.008471 3.392379
v 2.511725 0.008471 3.776771
v 2.511725 -0.332805 3.905246
v 2.511725 -0.332805 4.289639
v 2.511725 0.008471 3.905246
v 2.511725 0.008471 4.289638
v 0.873595 -0.024339 6.782686
v 0.250154 -0.024339 6.782686
v 0.873595 0.404554 6.782686
v 0.250154 0.404554 6.782686
vn -1.0000 -0.0000 -0.0000
vn -0.0000 -0.0000 -1.0000
vt 0.000000 0.000000
vt 1.000000 0.000000
vt 0.000000 1.000000
vt 1.000000 1.000000
vt 0.000000 0.000000
vt 1.000000 0.000000
vt 0.000000 1.000000
vt 1.000000 1.000000
vt 0.000000 0.000000
vt 1.000000 0.000000
vt 0.000000 1.000000
vt 1.000000 1.000000
vt 0.000000 0.000000
vt 1.000000 0.000000
vt 0.000000 1.000000
vt 1.000000 1.000000
vt 0.000000 0.000000
vt 1.000000 0.000000
vt 0.000000 1.000000
vt 1.000000 1.000000
vt 0.000000 0.000000
vt 1.000000 0.000000
vt 0.000000 1.000000
vt 1.000000 1.000000
vt 0.000000 0.000000
vt 1.000000 0.000000
vt 0.000000 1.000000
vt 1.000000 1.000000
vt 0.000000 0.000000
vt 1.000000 0.000000
vt 0.000000 1.000000
vt 1.000000 1.000000
s 0
g Plane_poster0
usemtl poster1
f 2/2/1 3/3/1 1/1/1
f 2/2/1 4/4/1 3/3/1
g Plane_poster1
usemtl poster0
f 6/6/1 7/7/1 5/5/1
f 6/6/1 8/8/1 7/7/1
g Plane_poster2
usemtl poster3
f 10/10/1 11/11/1 9/9/1
f 10/10/1 12/12/1 11/11/1
g Plane_poster3
usemtl poster2
f 14/14/1 15/15/1 13/13/1
f 14/14/1 16/16/1 15/15/1
g Plane_poster4
usemtl poster5
f 18/18/1 19/19/1 17/17/1
f 18/18/1 20/20/1 19/19/1
g Plane_poster5
usemtl poster4
f 22/22/1 23/23/1 21/21/1
f 22/22/1 24/24/1 23/23/1
g Plane_poster6
usemtl poster7
f 25/25/1 28/28/1 27/27/1
f 25/25/1 26/26/1 28/28/1
g Plane_poster7
usemtl poster6
f 29/29/2 32/32/2 31/31/2
f 29/29/2 30/30/2 32/32/2
