# Blender 3.5.0
# www.blender.org
mtllib switchOff.mtl
g SwitchOff_Mesh
v 0.882152 -0.194115 0.063071
v 0.871895 -0.215254 0.083511
v 0.896103 -0.203870 0.063071
v 0.882152 0.231801 0.063071
v 0.896103 0.241556 0.063071
v 0.871895 0.252940 0.083511
v 1.134725 -0.194115 0.063071
v 1.120775 -0.203870 0.063071
v 1.144982 -0.215254 0.083511
v 1.134725 0.231801 0.063071
v 1.144982 0.252940 0.083511
v 1.120775 0.241556 0.063071
v 0.882152 -0.194115 0.021068
v 0.896103 -0.203870 0.021068
v 0.896103 -0.194115 0.000628
v 0.882152 0.231801 0.021068
v 0.896103 0.231801 0.000628
v 0.896103 0.241556 0.021068
v 1.134725 0.231801 0.021068
v 1.120775 0.241556 0.021068
v 1.120775 0.231801 0.000628
v 1.134725 -0.194115 0.021068
v 1.120775 -0.194115 0.000628
v 1.120775 -0.203870 0.021068
v 0.603349 -0.758890 -0.030336
v 0.580598 -0.735392 -0.030336
v 0.603349 -0.735392 -0.083511
v 0.587262 -0.752007 -0.030336
v 0.590214 -0.748958 -0.061037
v 0.587262 -0.735392 -0.067936
v 0.603349 -0.752007 -0.067936
v 0.603349 0.796576 -0.030336
v 0.603349 0.773078 -0.083511
v 0.580598 0.773078 -0.030336
v 0.603349 0.789694 -0.067936
v 0.590214 0.786645 -0.061037
v 0.587262 0.773078 -0.067936
v 0.587262 0.789694 -0.030336
v 1.413529 -0.758890 -0.030336
v 1.413529 -0.735392 -0.083511
v 1.436279 -0.735392 -0.030336
v 1.413529 -0.752007 -0.067936
v 1.426663 -0.748958 -0.061037
v 1.429615 -0.735392 -0.067936
v 1.429615 -0.752007 -0.030336
v 1.413529 0.796576 -0.030336
v 1.436279 0.773078 -0.030336
v 1.413529 0.773078 -0.083511
v 1.429615 0.789694 -0.030336
v 1.426663 0.786645 -0.061037
v 1.429615 0.773078 -0.067936
v 1.413529 0.789694 -0.067936
v 0.603349 -0.758890 0.030336
v 0.597325 -0.731472 0.083511
v 0.580598 -0.735392 0.030336
v 0.600541 -0.750909 0.067793
v 0.588980 -0.748080 0.061037
v 0.585588 -0.733173 0.068128
v 0.587262 -0.752007 0.030336
v 0.597325 0.769158 0.083511
v 0.603349 0.796576 0.030336
v 0.580598 0.773078 0.030336
v 0.600541 0.788595 0.067793
v 0.588980 0.785766 0.061037
v 0.587262 0.789694 0.030336
v 0.585588 0.770859 0.068128
v 1.413529 0.796576 0.030336
v 1.419552 0.769158 0.083511
v 1.436279 0.773078 0.030336
v 1.416336 0.788595 0.067793
v 1.427897 0.785766 0.061037
v 1.431289 0.770860 0.068128
v 1.429615 0.789694 0.030336
v 1.413529 -0.758890 0.030336
v 1.436279 -0.735392 0.030336
v 1.419552 -0.731472 0.083511
v 1.429615 -0.752007 0.030336
v 1.427897 -0.748080 0.061037
v 1.431289 -0.733173 0.068128
v 1.416336 -0.750909 0.067793
v 0.897675 0.019937 -0.110764
v 1.119202 0.019937 -0.110764
v 0.897675 -0.096639 -0.095924
v 1.119202 -0.096639 -0.095924
v 0.897675 -0.181979 -0.055382
v 1.119202 -0.181979 -0.055382
v 0.897675 -0.213215 0.000000
v 1.119202 -0.213215 0.000000
v 0.897675 -0.181979 0.055382
v 1.119202 -0.181979 0.055382
v 0.897675 -0.096639 0.095924
v 1.119202 -0.096639 0.095924
v 0.897675 0.019937 0.110764
v 1.119202 0.019937 0.110764
v 0.897675 0.136512 0.095924
v 1.119202 0.136512 0.095924
v 0.897675 0.221852 0.055382
v 1.119202 0.221852 0.055382
v 0.897675 0.253088 0.000000
v 1.119202 0.253088 0.000000
v 0.897675 0.221852 -0.055382
v 1.119202 0.221852 -0.055382
v 0.897675 0.136512 -0.095924
v 1.119202 0.136512 -0.095924
v 1.089399 -0.296557 0.326184
v 0.927478 -0.296557 0.326184
v 0.927478 -0.234180 0.355818
v 1.089399 -0.234180 0.355818
vn -0.0000 -0.0000 -1.0000
vn -0.0000 1.0000 -0.0000
vn -0.0000 -0.0000 1.0000
vn -1.0000 -0.0000 -0.0000
vn 1.0000 -0.0000 -0.0000
vn -0.0000 -1.0000 -0.0000
vn 0.3788 0.5417 0.7503
vn 0.3788 -0.5417 0.7503
vn -0.3788 0.5417 0.7503
vn -0.3788 -0.5417 0.7503
vn 0.5337 0.7632 0.3643
vn 0.5337 -0.7632 0.3643
vn -0.5337 -0.7632 0.3643
vn -0.5337 0.7632 0.3643
vn 0.8938 -0.0000 0.4485
vn -0.8938 -0.0000 0.4485
vn -0.0000 0.8737 0.4865
vn -0.0000 -0.8737 0.4865
vn 0.8260 -0.0000 0.5637
vn -0.8260 -0.0000 0.5637
vn -0.0000 0.9025 0.4307
vn -0.0000 -0.9025 0.4307
vn 0.5731 -0.8195 -0.0000
vn -0.5731 -0.8195 -0.0000
vn -0.5731 0.8195 -0.0000
vn 0.5731 0.8195 -0.0000
vn -0.3073 -0.9361 -0.1713
vn -0.9208 -0.3693 -0.1252
vn -0.5769 -0.5586 -0.5959
vn -0.3901 0.9118 -0.1281
vn -0.5769 0.5586 -0.5959
vn -0.9423 0.2900 -0.1670
vn 0.3901 -0.9118 -0.1281
vn 0.5769 -0.5586 -0.5959
vn 0.9423 -0.2900 -0.1670
vn 0.3073 0.9361 -0.1713
vn 0.9208 0.3693 -0.1252
vn 0.5769 0.5586 -0.5959
vn -0.3896 -0.9106 0.1383
vn -0.6357 -0.5463 0.5455
vn -0.9485 -0.2833 0.1419
vn -0.6357 0.5463 0.5455
vn -0.3284 0.9285 0.1732
vn -0.9236 0.3704 0.0991
vn 0.3896 0.9106 0.1383
vn 0.6357 0.5463 0.5454
vn 0.9485 0.2833 0.1419
vn 0.3284 -0.9285 0.1732
vn 0.9236 -0.3704 0.0991
vn 0.6357 -0.5463 0.5455
vn -0.3933 -0.9194 -0.0000
vn -0.9281 -0.3722 -0.0000
vn -0.7950 -0.0000 0.6066
vn -0.9914 -0.0000 0.1309
vn -0.3933 0.9194 -0.0000
vn -0.9281 0.3722 -0.0000
vn -0.6956 -0.0000 -0.7185
vn -0.9847 -0.0000 -0.1745
vn -0.0000 -0.9837 -0.1801
vn -0.0000 -0.6839 -0.7296
vn -0.0000 0.9837 -0.1800
vn -0.0000 0.6839 -0.7296
vn 0.9847 -0.0000 -0.1745
vn 0.6956 -0.0000 -0.7185
vn 0.3933 -0.9194 -0.0000
vn 0.9281 -0.3722 -0.0000
vn 0.3933 0.9194 -0.0000
vn 0.9281 0.3722 -0.0000
vn 0.7950 -0.0000 0.6066
vn 0.9914 -0.0000 0.1309
vn -0.0000 -0.9780 0.2084
vn -0.0000 -0.6288 0.7776
vn -0.0000 0.9780 0.2084
vn -0.0000 0.6288 0.7776
vn -0.0000 -0.1263 -0.9920
vn -0.0000 -0.4291 -0.9033
vn -0.0000 -0.8710 -0.4913
vn -0.0000 -0.8710 0.4913
vn -0.0000 0.8839 0.4678
vn -0.0000 -0.1263 0.9920
vn -0.0000 0.1263 0.9920
vn -0.0000 0.4291 0.9033
vn -0.0000 0.8710 0.4913
vn -0.0000 0.8710 -0.4913
vn -0.0000 0.4291 -0.9033
vn -0.0000 0.1263 -0.9920
vn -0.0000 -0.4291 0.9033
vn -0.9949 -0.0433 0.0912
vn 0.9949 -0.0433 0.0912
vn -0.0000 -0.9210 -0.3897
vn -0.3901 -0.9118 -0.1281
vn -0.9423 -0.2900 -0.1670
vn -0.4929 -0.4773 -0.7275
vn -0.3073 0.9361 -0.1713
vn -0.4929 0.4773 -0.7275
vn -0.9208 0.3693 -0.1252
vn 0.3073 -0.9361 -0.1713
vn 0.4929 -0.4773 -0.7275
vn 0.9208 -0.3693 -0.1252
vn 0.3901 0.9118 -0.1281
vn 0.9423 0.2900 -0.1670
vn 0.4929 0.4773 -0.7275
vn -0.3284 -0.9285 0.1732
vn -0.5292 -0.4597 0.7132
vn -0.9236 -0.3704 0.0991
vn -0.5292 0.4597 0.7132
vn -0.3896 0.9106 0.1383
vn -0.9485 0.2833 0.1419
vn 0.3284 0.9285 0.1732
vn 0.5292 0.4597 0.7132
vn 0.9236 0.3704 0.0991
vn 0.3896 -0.9106 0.1383
vn 0.9485 -0.2833 0.1419
vn 0.5292 -0.4597 0.7132
vt 0.439582 0.891208
vt 0.435675 0.893214
vt 0.436814 0.889417
vt 0.560418 0.891207
vt 0.563186 0.889417
vt 0.564325 0.893214
vt 0.439582 0.858792
vt 0.436814 0.860583
vt 0.435675 0.856786
vt 0.560418 0.858792
vt 0.564325 0.856786
vt 0.563185 0.860583
vt 0.439582 0.891208
vt 0.436814 0.889417
vt 0.439582 0.889417
vt 0.560418 0.891208
vt 0.560418 0.889417
vt 0.563186 0.889417
vt 0.560418 0.858792
vt 0.563185 0.860583
vt 0.560418 0.860583
vt 0.439582 0.858792
vt 0.439582 0.860583
vt 0.436814 0.860583
vt 0.131647 0.579592
vt 0.378777 0.170408
vt 0.378777 0.256647
vt 0.375000 0.170408
vt 0.125000 0.579592
vt 0.125000 0.533640
vt 0.376596 0.250000
vt 0.375000 0.252809
vt 0.378777 0.250000
vt 0.131647 0.500000
vt 0.375000 0.256647
vt 0.868353 0.579592
vt 0.621223 0.256647
vt 0.621223 0.170408
vt 0.625000 0.256647
vt 0.868353 0.500000
vt 0.872191 0.500000
vt 0.623404 0.250000
vt 0.625000 0.216360
vt 0.621223 0.250000
vt 0.875000 0.579592
vt 0.625000 0.170408
vt 0.368353 0.579592
vt 0.378777 0.493353
vt 0.378777 0.579592
vt 0.375000 0.493353
vt 0.368353 0.500000
vt 0.374596 0.511213
vt 0.378777 0.500000
vt 0.375000 0.579592
vt 0.631647 0.579592
vt 0.621223 0.579592
vt 0.621223 0.493353
vt 0.625000 0.579592
vt 0.624468 0.510277
vt 0.621223 0.500000
vt 0.631647 0.500000
vt 0.625000 0.493353
vt 0.131647 0.670408
vt 0.377965 0.994781
vt 0.378777 0.079592
vt 0.375000 0.994173
vt 0.372882 0.993778
vt 0.130827 0.750000
vt 0.127449 0.750000
vt 0.376737 1.000000
vt 0.375000 0.033639
vt 0.379133 0.000000
vt 0.379133 1.000000
vt 0.125000 0.670408
vt 0.375000 0.079592
vt 0.622035 0.994781
vt 0.868353 0.670408
vt 0.621223 0.079592
vt 0.869173 0.750000
vt 0.625000 0.994173
vt 0.625000 0.997551
vt 0.875000 0.716361
vt 0.623263 0.000000
vt 0.625000 0.079592
vt 0.875000 0.670408
vt 0.622219 0.999587
vt 0.620867 1.000000
vt 0.620867 0.000000
vt 0.631647 0.670408
vt 0.622035 0.755219
vt 0.621223 0.670408
vt 0.625000 0.755827
vt 0.627118 0.756222
vt 0.630827 0.750000
vt 0.625237 0.738787
vt 0.620867 0.750000
vt 0.625000 0.670408
vt 0.368353 0.670408
vt 0.378777 0.670408
vt 0.377965 0.755219
vt 0.375000 0.670408
vt 0.375579 0.739603
vt 0.377781 0.750413
vt 0.379133 0.750000
vt 0.369173 0.750000
vt 0.375000 0.755827
vt 0.000000 0.500000
vt 1.000000 0.500000
vt 0.750000 0.490000
vt 1.000000 1.000000
vt 0.250000 0.490000
vt 0.000000 1.000000
vt 0.916667 0.500000
vt 0.870000 0.457846
vt 0.916667 1.000000
vt 0.370000 0.457846
vt 0.833333 0.500000
vt 0.957846 0.370000
vt 0.833333 1.000000
vt 0.457846 0.370000
vt 0.750000 0.500000
vt 0.990000 0.250000
vt 0.750000 1.000000
vt 0.490000 0.250000
vt 0.666667 0.500000
vt 0.957846 0.130000
vt 0.457846 0.130000
vt 0.666667 1.000000
vt 0.583333 0.500000
vt 0.870000 0.042154
vt 0.583333 1.000000
vt 0.370000 0.042154
vt 0.500000 0.500000
vt 0.750000 0.010000
vt 0.500000 1.000000
vt 0.250000 0.010000
vt 0.416667 0.500000
vt 0.630000 0.042154
vt 0.416667 1.000000
vt 0.130000 0.042154
vt 0.333333 0.500000
vt 0.542154 0.130000
vt 0.333333 1.000000
vt 0.042154 0.130000
vt 0.250000 0.500000
vt 0.510000 0.250000
vt 0.250000 1.000000
vt 0.010000 0.250000
vt 0.166667 0.500000
vt 0.542154 0.370000
vt 0.042154 0.370000
vt 0.166667 1.000000
vt 0.083333 0.500000
vt 0.630000 0.457846
vt 0.130000 0.457846
vt 0.083333 1.000000
vt 0.457846 0.130000
vt 0.666667 1.000000
vt 0.957846 0.130000
vt 0.666667 0.500000
vt 0.870000 0.042154
vt 0.583333 0.500000
vt 0.583333 1.000000
vt 0.370000 0.042154
s 0
g SwitchOff_Material.050
usemtl Material.050
f 33/37/1 40/48/1 27/27/1
f 32/36/2 67/89/2 46/55/2
f 6/6/3 54/64/3 2/2/3
f 10/10/4 22/22/4 7/7/4
f 62/78/4 26/26/4 55/65/4
f 47/56/5 75/99/5 41/49/5
f 8/8/2 14/14/2 3/3/2
f 21/21/3 15/15/3 23/23/3
f 9/9/3 68/90/3 11/11/3
f 5/5/6 20/20/6 12/12/6
f 11/11/3 60/76/3 6/6/3
f 2/2/3 76/100/3 9/9/3
f 1/1/7 2/2/7 3/3/7
f 4/4/8 5/5/8 6/6/8
f 7/7/9 8/8/9 9/9/9
f 10/10/10 11/11/10 12/12/10
f 13/13/11 14/14/11 15/15/11
f 16/16/12 17/17/12 18/18/12
f 19/19/13 20/20/13 21/21/13
f 22/22/14 23/23/14 24/24/14
f 4/4/15 2/2/15 1/1/15
f 7/7/16 11/11/16 10/10/16
f 2/2/17 8/8/17 3/3/17
f 6/6/18 12/12/18 11/11/18
f 17/17/19 13/13/19 15/15/19
f 23/23/20 19/19/20 21/21/20
f 24/24/21 15/15/21 14/14/21
f 18/18/22 21/21/22 20/20/22
f 16/16/23 5/5/23 4/4/23
f 10/10/24 20/20/24 19/19/24
f 8/8/25 22/22/25 24/24/25
f 1/1/26 14/14/26 13/13/26
f 1/1/5 16/16/5 4/4/5
f 25/25/27 29/30/27 31/34/27
f 26/26/28 29/31/28 28/28/28
f 31/35/29 30/33/29 27/27/29
f 32/36/30 36/41/30 38/45/30
f 37/44/31 35/39/31 33/37/31
f 34/38/32 36/43/32 37/44/32
f 39/47/33 43/52/33 45/54/33
f 44/53/34 42/50/34 40/48/34
f 41/49/35 43/52/35 44/53/35
f 46/55/36 50/59/36 52/61/36
f 47/56/37 50/59/37 49/58/37
f 52/62/38 51/60/38 48/57/38
f 53/63/39 57/69/39 59/74/39
f 58/73/40 56/67/40 54/64/40
f 55/65/41 57/71/41 58/72/41
f 63/80/42 66/86/42 60/76/42
f 61/77/43 64/82/43 63/79/43
f 62/78/44 64/83/44 65/84/44
f 67/89/45 71/95/45 73/97/45
f 72/96/46 70/93/46 68/90/46
f 69/91/47 71/95/47 72/96/47
f 74/98/48 78/102/48 80/105/48
f 75/99/49 78/102/49 77/101/49
f 80/106/50 79/103/50 76/100/50
f 25/25/51 59/74/51 28/29/51
f 59/75/52 26/26/52 28/28/52
f 60/76/53 58/73/53 54/64/53
f 66/88/54 55/65/54 58/72/54
f 61/77/55 38/45/55 65/85/55
f 38/46/56 62/78/56 65/84/56
f 27/27/57 37/44/57 33/37/57
f 30/33/58 34/38/58 37/44/58
f 25/25/59 42/51/59 39/47/59
f 31/35/60 40/48/60 42/50/60
f 46/55/61 35/40/61 32/36/61
f 52/62/62 33/37/62 35/39/62
f 41/49/63 51/60/63 47/56/63
f 44/53/64 48/57/64 51/60/64
f 74/98/65 45/54/65 77/101/65
f 45/54/66 75/99/66 77/101/66
f 46/55/67 73/97/67 49/58/67
f 73/97/68 47/56/68 49/58/68
f 76/100/69 72/96/69 68/90/69
f 79/104/70 69/91/70 72/96/70
f 74/98/71 56/68/71 53/63/71
f 80/106/72 54/64/72 56/66/72
f 61/77/73 70/94/73 67/89/73
f 63/80/74 68/90/74 70/92/74
f 39/47/6 53/63/6 25/25/6
f 81/108/75 84/115/75 83/113/75
f 83/113/76 86/119/76 85/117/76
f 86/119/77 87/121/77 85/117/77
f 88/123/78 89/125/78 87/121/78
f 91/129/79 108/163/79 92/131/79
f 92/131/80 93/133/80 91/129/80
f 94/135/81 95/137/81 93/133/81
f 96/139/82 97/141/82 95/137/82
f 98/143/83 99/145/83 97/141/83
f 100/147/84 101/149/84 99/145/84
f 102/151/5 94/136/5 86/120/5
f 102/152/85 103/153/85 101/149/85
f 103/153/86 82/112/86 81/107/86
f 87/122/4 95/138/4 103/154/4
f 105/158/87 107/162/87 106/160/87
f 91/130/88 106/159/88 107/161/88
f 90/127/89 108/164/89 105/157/89
f 90/128/90 106/160/90 89/125/90
f 33/37/1 48/57/1 40/48/1
f 32/36/2 61/77/2 67/89/2
f 6/6/3 60/76/3 54/64/3
f 10/10/4 19/19/4 22/22/4
f 62/78/4 34/38/4 26/26/4
f 47/56/5 69/91/5 75/99/5
f 8/8/2 24/24/2 14/14/2
f 21/21/3 17/17/3 15/15/3
f 9/9/3 76/100/3 68/90/3
f 5/5/6 18/18/6 20/20/6
f 11/11/3 68/90/3 60/76/3
f 2/2/3 54/64/3 76/100/3
f 4/4/15 6/6/15 2/2/15
f 7/7/16 9/9/16 11/11/16
f 2/2/17 9/9/17 8/8/17
f 6/6/18 5/5/18 12/12/18
f 17/17/19 16/16/19 13/13/19
f 23/23/20 22/22/20 19/19/20
f 24/24/21 23/23/21 15/15/21
f 18/18/22 17/17/22 21/21/22
f 16/16/23 18/18/23 5/5/23
f 10/10/24 12/12/24 20/20/24
f 8/8/25 7/7/25 22/22/25
f 1/1/26 3/3/26 14/14/26
f 1/1/5 13/13/5 16/16/5
f 25/25/91 28/29/91 29/30/91
f 26/26/92 30/33/92 29/31/92
f 31/35/93 29/32/93 30/33/93
f 32/36/94 35/40/94 36/41/94
f 37/44/95 36/42/95 35/39/95
f 34/38/96 38/46/96 36/43/96
f 39/47/97 42/51/97 43/52/97
f 44/53/98 43/52/98 42/50/98
f 41/49/99 45/54/99 43/52/99
f 46/55/100 49/58/100 50/59/100
f 47/56/101 51/60/101 50/59/101
f 52/62/102 50/59/102 51/60/102
f 53/63/103 56/68/103 57/69/103
f 58/73/104 57/70/104 56/67/104
f 55/65/105 59/75/105 57/71/105
f 63/80/106 64/81/106 66/86/106
f 61/77/107 65/85/107 64/82/107
f 62/78/108 66/88/108 64/83/108
f 67/89/109 70/94/109 71/95/109
f 72/96/110 71/95/110 70/93/110
f 69/91/111 73/97/111 71/95/111
f 74/98/112 77/101/112 78/102/112
f 75/99/113 79/104/113 78/102/113
f 80/106/114 78/102/114 79/103/114
f 25/25/51 53/63/51 59/74/51
f 59/75/52 55/65/52 26/26/52
f 60/76/53 66/87/53 58/73/53
f 66/88/54 62/78/54 55/65/54
f 61/77/55 32/36/55 38/45/55
f 38/46/56 34/38/56 62/78/56
f 27/27/57 30/33/57 37/44/57
f 30/33/58 26/26/58 34/38/58
f 25/25/59 31/34/59 42/51/59
f 31/35/60 27/27/60 40/48/60
f 46/55/61 52/61/61 35/40/61
f 52/62/62 48/57/62 33/37/62
f 41/49/63 44/53/63 51/60/63
f 44/53/64 40/48/64 48/57/64
f 74/98/65 39/47/65 45/54/65
f 45/54/66 41/49/66 75/99/66
f 46/55/67 67/89/67 73/97/67
f 73/97/68 69/91/68 47/56/68
f 76/100/69 79/104/69 72/96/69
f 79/104/70 75/99/70 69/91/70
f 74/98/71 80/105/71 56/68/71
f 80/106/72 76/100/72 54/64/72
f 61/77/73 63/79/73 70/94/73
f 63/80/74 60/76/74 68/90/74
f 39/47/6 74/98/6 53/63/6
f 81/108/75 82/110/75 84/115/75
f 83/113/76 84/115/76 86/119/76
f 86/119/77 88/123/77 87/121/77
f 88/123/78 90/128/78 89/125/78
f 91/129/79 107/162/79 108/163/79
f 92/131/80 94/135/80 93/133/80
f 94/135/81 96/139/81 95/137/81
f 96/139/82 98/143/82 97/141/82
f 98/143/83 100/147/83 99/145/83
f 100/147/84 102/152/84 101/149/84
f 86/120/5 84/116/5 82/111/5
f 82/111/5 104/155/5 102/151/5
f 102/151/5 100/148/5 98/144/5
f 98/144/5 96/140/5 94/136/5
f 94/136/5 92/132/5 90/127/5
f 90/127/5 88/124/5 86/120/5
f 86/120/5 82/111/5 102/151/5
f 102/151/5 98/144/5 94/136/5
f 94/136/5 90/127/5 86/120/5
f 102/152/85 104/156/85 103/153/85
f 103/153/86 104/156/86 82/112/86
f 103/154/4 81/109/4 83/114/4
f 83/114/4 85/118/4 87/122/4
f 87/122/4 89/126/4 91/130/4
f 91/130/4 93/134/4 95/138/4
f 95/138/4 97/142/4 99/146/4
f 99/146/4 101/150/4 103/154/4
f 103/154/4 83/114/4 87/122/4
f 87/122/4 91/130/4 95/138/4
f 95/138/4 99/146/4 103/154/4
f 105/158/87 108/163/87 107/162/87
f 91/130/88 89/126/88 106/159/88
f 90/127/89 92/132/89 108/164/89
f 90/128/90 105/158/90 106/160/90
