# Blender 3.4.1
# www.blender.org
mtllib whiteboard.mtl
g whiteboard_Mesh
v -2.441208 0.959845 -6.038840
v -2.288746 0.807382 -6.038840
v -2.437386 0.925919 -6.038840
v -2.426110 0.893694 -6.038840
v -2.407946 0.864786 -6.038840
v -2.383805 0.840645 -6.038840
v -2.354897 0.822481 -6.038840
v -2.322672 0.811205 -6.038840
v -2.288746 2.244960 -6.038839
v -2.441208 2.092497 -6.038839
v -2.322672 2.241138 -6.038839
v -2.354897 2.229862 -6.038839
v -2.383805 2.211698 -6.038839
v -2.407946 2.187556 -6.038839
v -2.426110 2.158649 -6.038839
v -2.437386 2.126424 -6.038839
v -0.075546 0.807382 -6.038840
v 0.076917 0.959845 -6.038840
v -0.041620 0.811205 -6.038840
v -0.009395 0.822481 -6.038840
v 0.019513 0.840645 -6.038840
v 0.043654 0.864786 -6.038840
v 0.061818 0.893694 -6.038840
v 0.073094 0.925919 -6.038840
v 0.076917 2.092497 -6.038839
v -0.075546 2.244960 -6.038839
v 0.073094 2.126424 -6.038839
v 0.061818 2.158649 -6.038839
v 0.043654 2.187556 -6.038839
v 0.019513 2.211698 -6.038839
v -0.009395 2.229862 -6.038839
v -0.041620 2.241138 -6.038839
vn -0.0000 -0.0000 1.0000
vn 0.0001 -0.0000 1.0000
vn -0.0001 -0.0000 1.0000
vt 0.401514 1.000000
vt 0.375000 0.984864
vt 0.395614 0.999620
vt 0.390010 0.998501
vt 0.384983 0.996698
vt 0.380785 0.994301
vt 0.377626 0.991431
vt 0.375665 0.988232
vt 0.625000 0.984863
vt 0.598486 1.000000
vt 0.624335 0.988232
vt 0.622374 0.991431
vt 0.619216 0.994301
vt 0.615017 0.996698
vt 0.609990 0.998501
vt 0.604386 0.999620
vt 0.375000 0.765137
vt 0.401514 0.750000
vt 0.375665 0.761768
vt 0.377626 0.758569
vt 0.380785 0.755699
vt 0.384983 0.753302
vt 0.390010 0.751499
vt 0.395614 0.750380
vt 0.598486 0.750000
vt 0.625000 0.765137
vt 0.604386 0.750380
vt 0.609990 0.751499
vt 0.615017 0.753302
vt 0.619216 0.755699
vt 0.622374 0.758569
vt 0.624335 0.761768
s 0
g whiteboard_Material.030
usemtl Material.030
f 26/26/1 10/10/1 2/2/1
f 2/2/1 17/17/1 19/19/1
f 19/19/2 20/20/2 21/21/2
f 21/21/3 22/22/3 23/23/3
f 23/23/1 24/24/1 18/18/1
f 18/18/3 25/25/3 27/27/3
f 27/27/2 28/28/2 29/29/2
f 29/29/1 30/30/1 31/31/1
f 31/31/1 32/32/1 26/26/1
f 26/26/1 9/9/1 11/11/1
f 11/11/1 12/12/1 13/13/1
f 13/13/1 14/14/1 15/15/1
f 15/15/2 16/16/2 10/10/2
f 10/10/2 1/1/2 3/3/2
f 3/3/1 4/4/1 5/5/1
f 5/5/2 6/6/2 7/7/2
f 7/7/1 8/8/1 2/2/1
f 2/2/1 19/19/1 21/21/1
f 21/21/1 23/23/1 18/18/1
f 18/18/1 27/27/1 29/29/1
f 29/29/1 31/31/1 26/26/1
f 26/26/1 11/11/1 13/13/1
f 13/13/1 15/15/1 10/10/1
f 10/10/1 3/3/1 5/5/1
f 5/5/1 7/7/1 2/2/1
f 2/2/1 21/21/1 18/18/1
f 18/18/1 29/29/1 26/26/1
f 26/26/1 13/13/1 10/10/1
f 10/10/1 5/5/1 2/2/1
f 2/2/1 18/18/1 26/26/1
