# Blender 3.4.1
# www.blender.org
mtllib whiteboardFrame.mtl
g whiteboardFrame_Mesh
v -2.441208 0.959845 -6.038840
v -2.288746 0.807382 -6.038840
v -2.437386 0.925919 -6.038840
v -2.426110 0.893694 -6.038840
v -2.407946 0.864786 -6.038840
v -2.383805 0.840645 -6.038840
v -2.354897 0.822481 -6.038840
v -2.322672 0.811205 -6.038840
v -2.288746 2.244960 -6.038839
v -2.441208 2.092497 -6.038839
v -2.322672 2.241138 -6.038839
v -2.354897 2.229862 -6.038839
v -2.383805 2.211698 -6.038839
v -2.407946 2.187556 -6.038839
v -2.426110 2.158649 -6.038839
v -2.437386 2.126424 -6.038839
v -2.288746 0.807382 -6.148263
v -2.441208 0.959845 -6.148263
v -2.322672 0.811205 -6.148263
v -2.354897 0.822481 -6.148263
v -2.383805 0.840645 -6.148263
v -2.407946 0.864786 -6.148263
v -2.426110 0.893694 -6.148263
v -2.437386 0.925919 -6.148263
v -2.441208 2.092497 -6.148263
v -2.288746 2.244960 -6.148263
v -2.437386 2.126424 -6.148263
v -2.426110 2.158649 -6.148263
v -2.407946 2.187556 -6.148263
v -2.383805 2.211698 -6.148263
v -2.354897 2.229862 -6.148263
v -2.322672 2.241138 -6.148263
v -0.075546 0.807382 -6.038840
v 0.076917 0.959845 -6.038840
v -0.041620 0.811205 -6.038840
v -0.009395 0.822481 -6.038840
v 0.019513 0.840645 -6.038840
v 0.043654 0.864786 -6.038840
v 0.061818 0.893694 -6.038840
v 0.073094 0.925919 -6.038840
v 0.076917 2.092497 -6.038839
v -0.075546 2.244960 -6.038839
v 0.073094 2.126424 -6.038839
v 0.061818 2.158649 -6.038839
v 0.043654 2.187556 -6.038839
v 0.019513 2.211698 -6.038839
v -0.009395 2.229862 -6.038839
v -0.041620 2.241138 -6.038839
v 0.076917 0.959845 -6.148263
v -0.075546 0.807382 -6.148263
v 0.073094 0.925919 -6.148263
v 0.061818 0.893694 -6.148263
v 0.043654 0.864786 -6.148263
v 0.019513 0.840645 -6.148263
v -0.009395 0.822481 -6.148263
v -0.041620 0.811205 -6.148263
v -0.075546 2.244960 -6.148263
v 0.076917 2.092497 -6.148263
v -0.041620 2.241138 -6.148263
v -0.009395 2.229862 -6.148263
v 0.019513 2.211698 -6.148263
v 0.043654 2.187556 -6.148263
v 0.061818 2.158649 -6.148263
v 0.073094 2.126424 -6.148263
v -2.327233 0.791220 -6.148263
v -2.289895 0.786916 -6.148263
v -2.289895 0.786916 -6.038840
v -2.327233 0.791220 -6.038840
v -2.363791 0.804012 -6.148263
v -2.363791 0.804012 -6.038840
v -2.396585 0.824618 -6.148263
v -2.396585 0.824618 -6.038840
v -2.423972 0.852005 -6.148263
v -2.423972 0.852005 -6.038840
v -2.444579 0.884800 -6.148263
v -2.444579 0.884800 -6.038840
v -2.457371 0.921357 -6.148263
v -2.457371 0.921357 -6.038840
v -2.461675 0.958696 -6.148263
v -2.461675 0.958696 -6.038840
v -2.327233 2.261122 -6.038839
v -2.289895 2.265427 -6.038839
v -2.289895 2.265427 -6.148263
v -2.327233 2.261122 -6.148263
v -2.363791 2.248330 -6.038839
v -2.363791 2.248330 -6.148263
v -2.396585 2.227724 -6.038839
v -2.396585 2.227724 -6.148263
v -2.423972 2.200337 -6.038839
v -2.423972 2.200337 -6.148263
v -2.444579 2.167543 -6.038839
v -2.444579 2.167543 -6.148263
v -2.457371 2.130985 -6.038839
v -2.457371 2.130985 -6.148263
v -2.461675 2.093647 -6.038839
v -2.461675 2.093647 -6.148263
v -0.037059 0.791220 -6.038840
v -0.074397 0.786916 -6.038840
v -0.074397 0.786916 -6.148263
v -0.037059 0.791220 -6.148263
v -0.000501 0.804012 -6.038840
v -0.000501 0.804012 -6.148263
v 0.032293 0.824618 -6.038840
v 0.032293 0.824618 -6.148263
v 0.059680 0.852005 -6.038840
v 0.059680 0.852005 -6.148263
v 0.080287 0.884800 -6.038840
v 0.080287 0.884800 -6.148263
v 0.093079 0.921357 -6.038840
v 0.093079 0.921357 -6.148263
v 0.097383 0.958696 -6.038840
v 0.097383 0.958696 -6.148263
v -0.037059 2.261122 -6.148263
v -0.074397 2.265427 -6.148263
v -0.074397 2.265427 -6.038839
v -0.037059 2.261122 -6.038839
v -0.000501 2.248330 -6.148263
v -0.000501 2.248330 -6.038839
v 0.032293 2.227724 -6.148263
v 0.032293 2.227724 -6.038839
v 0.059680 2.200337 -6.148263
v 0.059680 2.200337 -6.038839
v 0.080287 2.167543 -6.148263
v 0.080287 2.167543 -6.038839
v 0.093079 2.130985 -6.148263
v 0.093079 2.130985 -6.038839
v 0.097383 2.093647 -6.148263
v 0.097383 2.093647 -6.038839
v -0.074397 0.786916 -6.017535
v -0.075546 0.807382 -6.017535
v -2.288746 0.807382 -6.017535
v -2.322672 0.811205 -6.017535
v -2.354897 0.822481 -6.017535
v -2.383805 0.840645 -6.017535
v -2.407946 0.864786 -6.017535
v -2.426110 0.893694 -6.017535
v -2.444579 2.167543 -6.017535
v -2.426110 2.158649 -6.017535
v -2.437386 0.925919 -6.017535
v -2.441208 0.959845 -6.017535
v -2.396585 0.824618 -6.017535
v -2.322672 2.241138 -6.017535
v -2.288746 2.244960 -6.017535
v 0.093079 0.921357 -6.017535
v 0.073094 0.925919 -6.017535
v 0.076917 2.092497 -6.017535
v 0.097383 2.093647 -6.017535
v -2.354897 2.229862 -6.017535
v -2.383805 2.211698 -6.017535
v -2.407946 2.187556 -6.017535
v -2.423972 2.200337 -6.017535
v -2.437386 2.126424 -6.017535
v -2.441208 2.092497 -6.017535
v -2.363791 0.804012 -6.017535
v -0.041620 0.811205 -6.017535
v 0.080287 0.884800 -6.017535
v 0.061818 0.893694 -6.017535
v 0.043654 0.864786 -6.017535
v 0.059680 0.852005 -6.017535
v -0.009395 0.822481 -6.017535
v 0.080287 2.167543 -6.017535
v 0.061818 2.158649 -6.017535
v 0.019513 0.840645 -6.017535
v 0.073094 2.126424 -6.017535
v 0.093079 2.130985 -6.017535
v 0.076917 0.959845 -6.017535
v -0.075546 2.244960 -6.017535
v -0.041620 2.241138 -6.017535
v -0.009395 2.229862 -6.017535
v -2.396585 2.227724 -6.017535
v 0.019513 2.211698 -6.017535
v -2.363791 2.248330 -6.017535
v 0.043654 2.187556 -6.017535
v -2.289895 0.786916 -6.017535
v -2.327233 0.791220 -6.017535
v -2.423972 0.852005 -6.017535
v -2.444579 0.884800 -6.017535
v -2.457371 0.921357 -6.017535
v -2.461675 0.958696 -6.017535
v -2.327233 2.261122 -6.017535
v -2.289895 2.265427 -6.017535
v -2.457371 2.130985 -6.017535
v -2.461675 2.093647 -6.017535
v -0.037059 0.791220 -6.017535
v -0.000501 0.804012 -6.017535
v 0.032293 0.824618 -6.017535
v 0.097383 0.958696 -6.017535
v -0.074397 2.265427 -6.017535
v -0.037059 2.261122 -6.017535
v -0.000501 2.248330 -6.017535
v 0.032293 2.227724 -6.017535
v 0.059680 2.200337 -6.017535
vn -0.0000 -0.0000 1.0000
vn -0.0000 -0.0000 -1.0000
vn 0.0001 -0.0000 -1.0000
vn 0.8467 -0.5321 -0.0000
vn 0.0561 0.9984 -0.0000
vn -0.9439 -0.3303 -0.0000
vn 0.5320 0.8467 -0.0000
vn -0.9439 0.3303 -0.0000
vn -0.9937 -0.1120 -0.0000
vn 0.1145 0.9934 -0.0000
vn -0.9934 0.1145 -0.0000
vn 0.7071 -0.7071 -0.0000
vn -0.8467 -0.5321 -0.0000
vn 0.3303 0.9439 -0.0000
vn -0.8467 0.5321 -0.0000
vn 1.0000 -0.0000 -0.0000
vn -0.0000 1.0000 -0.0000
vn -1.0000 -0.0000 -0.0000
vn -0.1145 -0.9934 -0.0000
vn -0.3303 -0.9439 -0.0000
vn -0.5320 -0.8467 -0.0000
vn -0.7071 -0.7071 -0.0000
vn -0.8467 -0.5320 -0.0000
vn -0.9934 -0.1145 -0.0000
vn -0.1145 0.9934 -0.0000
vn -0.3303 0.9439 -0.0000
vn -0.5320 0.8467 -0.0000
vn -0.7071 0.7071 -0.0000
vn -0.8467 0.5320 -0.0000
vn 0.1145 -0.9934 -0.0000
vn 0.3303 -0.9439 -0.0000
vn 0.5320 -0.8467 -0.0000
vn 0.8467 -0.5320 -0.0000
vn 0.9439 -0.3303 -0.0000
vn 0.9934 -0.1145 -0.0000
vn 0.7071 0.7071 -0.0000
vn 0.8467 0.5321 -0.0000
vn 0.9439 0.3303 -0.0000
vn 0.9934 0.1145 -0.0000
vn -0.0000 -1.0000 -0.0000
vn 0.1120 0.9937 -0.0000
vn 0.0561 -0.9984 -0.0000
vn -0.0561 -0.9984 -0.0000
vn -0.9937 0.1120 -0.0000
vn -0.0561 0.9984 -0.0000
vn 0.8467 0.5320 -0.0000
vn 0.9937 -0.1119 -0.0000
vn -0.1120 -0.9937 -0.0000
vn -0.1120 0.9937 -0.0000
vn 0.9937 0.1120 -0.0000
vn -0.9984 0.0561 -0.0000
vn 0.1120 -0.9937 -0.0000
vn 0.9984 0.0560 -0.0000
vn -0.0001 -0.0000 -1.0000
vn 0.9937 0.1119 -0.0000
vn -0.9984 0.0560 -0.0000
vn 0.9984 0.0561 -0.0000
vt 0.401514 1.000000
vt 0.375000 0.984864
vt 0.395614 0.999620
vt 0.390010 0.998501
vt 0.384983 0.996698
vt 0.380785 0.994301
vt 0.377626 0.991431
vt 0.375665 0.988232
vt 0.625000 0.984863
vt 0.598486 1.000000
vt 0.624335 0.988232
vt 0.622374 0.991431
vt 0.619216 0.994301
vt 0.615017 0.996698
vt 0.609990 0.998501
vt 0.604386 0.999620
vt 0.375000 0.265137
vt 0.401514 0.250000
vt 0.375665 0.261768
vt 0.377626 0.258569
vt 0.380785 0.255699
vt 0.384983 0.253302
vt 0.390010 0.251499
vt 0.395614 0.250380
vt 0.598486 0.250000
vt 0.625000 0.265137
vt 0.604386 0.250380
vt 0.609990 0.251499
vt 0.615017 0.253302
vt 0.619216 0.255699
vt 0.622374 0.258569
vt 0.624335 0.261768
vt 0.375000 0.765137
vt 0.401514 0.750000
vt 0.375665 0.761768
vt 0.377626 0.758569
vt 0.380785 0.755699
vt 0.384983 0.753302
vt 0.390010 0.751499
vt 0.395614 0.750380
vt 0.598486 0.750000
vt 0.625000 0.765137
vt 0.604386 0.750380
vt 0.609990 0.751499
vt 0.615017 0.753302
vt 0.619216 0.755699
vt 0.622374 0.758569
vt 0.624335 0.761768
vt 0.401514 0.500000
vt 0.375000 0.484863
vt 0.395614 0.499620
vt 0.390010 0.498501
vt 0.384983 0.496698
vt 0.380785 0.494301
vt 0.377626 0.491431
vt 0.375665 0.488232
vt 0.625000 0.484863
vt 0.598486 0.500000
vt 0.624335 0.488232
vt 0.622374 0.491431
vt 0.619216 0.494301
vt 0.615017 0.496698
vt 0.609990 0.498501
vt 0.604386 0.499620
vt 0.375665 0.261768
vt 0.136768 0.500000
vt 0.140137 0.500000
vt 0.375000 0.265137
vt 0.140137 0.750000
vt 0.136768 0.750000
vt 0.377626 0.258569
vt 0.133569 0.500000
vt 0.133569 0.750000
vt 0.380785 0.255699
vt 0.130699 0.500000
vt 0.130699 0.750000
vt 0.375000 0.250000
vt 0.384983 0.253302
vt 0.125000 0.500000
vt 0.125000 0.750000
vt 0.375000 0.000000
vt 0.390010 0.250000
vt 0.390010 0.251499
vt 0.390010 0.000000
vt 0.395614 0.250000
vt 0.395614 0.250380
vt 0.395614 0.000000
vt 0.401514 0.250000
vt 0.401514 0.000000
vt 0.401514 1.000000
vt 0.863232 0.750000
vt 0.859863 0.750000
vt 0.625000 0.984863
vt 0.859863 0.500000
vt 0.625000 0.265137
vt 0.863232 0.500000
vt 0.624335 0.261768
vt 0.866431 0.750000
vt 0.866431 0.500000
vt 0.622374 0.258569
vt 0.625000 0.000000
vt 0.875000 0.750000
vt 0.619216 0.255699
vt 0.875000 0.500000
vt 0.625000 0.250000
vt 0.615017 0.000000
vt 0.615017 0.253302
vt 0.615017 0.250000
vt 0.609990 0.000000
vt 0.609990 0.251499
vt 0.609990 0.250000
vt 0.604386 0.000000
vt 0.604386 0.250380
vt 0.604386 0.250000
vt 0.598486 1.000000
vt 0.598486 0.000000
vt 0.598486 0.250000
vt 0.363232 0.750000
vt 0.359863 0.750000
vt 0.359863 0.500000
vt 0.375000 0.484863
vt 0.363232 0.500000
vt 0.375665 0.488232
vt 0.366431 0.750000
vt 0.366431 0.500000
vt 0.377626 0.491431
vt 0.369301 0.750000
vt 0.369301 0.500000
vt 0.380785 0.494301
vt 0.384983 0.750000
vt 0.384983 0.496698
vt 0.384983 0.500000
vt 0.390010 0.750000
vt 0.390010 0.498501
vt 0.390010 0.500000
vt 0.395614 0.750000
vt 0.395614 0.499620
vt 0.395614 0.500000
vt 0.401514 0.750000
vt 0.401514 0.500000
vt 0.636768 0.500000
vt 0.624335 0.488232
vt 0.640137 0.500000
vt 0.625000 0.484863
vt 0.640137 0.750000
vt 0.625000 0.765137
vt 0.636768 0.750000
vt 0.633569 0.500000
vt 0.622374 0.491431
vt 0.633569 0.750000
vt 0.630699 0.500000
vt 0.619216 0.494301
vt 0.630699 0.750000
vt 0.615017 0.500000
vt 0.615017 0.496698
vt 0.615017 0.750000
vt 0.609990 0.498501
vt 0.609990 0.500000
vt 0.609990 0.750000
vt 0.604386 0.499620
vt 0.604386 0.500000
vt 0.604386 0.750000
vt 0.598486 0.500000
vt 0.598486 0.750000
vt 0.375000 0.765137
vt 0.359863 0.750000
vt 0.375000 0.765137
vt 0.375000 0.984864
vt 0.375665 0.988232
vt 0.377626 0.991431
vt 0.380785 0.994301
vt 0.384983 0.996698
vt 0.390010 0.998501
vt 0.609990 0.000000
vt 0.609990 0.998501
vt 0.609990 0.998501
vt 0.395614 0.999620
vt 0.401514 1.000000
vt 0.130699 0.750000
vt 0.380785 0.994301
vt 0.624335 0.988232
vt 0.625000 0.984863
vt 0.395614 0.750000
vt 0.395614 0.750380
vt 0.395614 0.750380
vt 0.598486 0.750000
vt 0.598486 0.750000
vt 0.622374 0.991431
vt 0.619216 0.994301
vt 0.615017 0.996698
vt 0.615017 0.996698
vt 0.615017 0.000000
vt 0.604386 0.999620
vt 0.598486 1.000000
vt 0.377626 0.991431
vt 0.133569 0.750000
vt 0.375665 0.761768
vt 0.390010 0.751499
vt 0.390010 0.750000
vt 0.390010 0.751499
vt 0.384983 0.753302
vt 0.384983 0.753302
vt 0.384983 0.750000
vt 0.377626 0.758569
vt 0.609990 0.751499
vt 0.609990 0.750000
vt 0.609990 0.751499
vt 0.380785 0.755699
vt 0.604386 0.750380
vt 0.604386 0.750380
vt 0.604386 0.750000
vt 0.401514 0.750000
vt 0.625000 0.765137
vt 0.624335 0.761768
vt 0.622374 0.758569
vt 0.619216 0.994301
vt 0.875000 0.750000
vt 0.625000 0.000000
vt 0.619216 0.755699
vt 0.622374 0.991431
vt 0.866431 0.750000
vt 0.615017 0.753302
vt 0.375000 0.984864
vt 0.140137 0.750000
vt 0.375665 0.988232
vt 0.136768 0.750000
vt 0.375000 0.000000
vt 0.125000 0.750000
vt 0.384983 0.996698
vt 0.390010 0.000000
vt 0.390010 0.998501
vt 0.395614 0.999620
vt 0.395614 0.000000
vt 0.401514 0.000000
vt 0.401514 1.000000
vt 0.624335 0.988232
vt 0.863232 0.750000
vt 0.859863 0.750000
vt 0.625000 0.984863
vt 0.604386 0.000000
vt 0.604386 0.999620
vt 0.598486 0.000000
vt 0.598486 1.000000
vt 0.375665 0.761768
vt 0.363232 0.750000
vt 0.377626 0.758569
vt 0.366431 0.750000
vt 0.380785 0.755699
vt 0.369301 0.750000
vt 0.401514 0.750000
vt 0.640137 0.750000
vt 0.625000 0.765137
vt 0.624335 0.761768
vt 0.636768 0.750000
vt 0.622374 0.758569
vt 0.633569 0.750000
vt 0.619216 0.755699
vt 0.630699 0.750000
vt 0.615017 0.753302
vt 0.615017 0.750000
s 0
g whiteboardFrame_Material.029
usemtl Material.029
f 41/41/1 111/139/1 128/164/1
f 22/22/2 75/83/2 23/23/2
f 27/27/3 92/110/3 28/28/3
f 26/26/2 58/58/2 50/50/2
f 25/25/2 79/88/2 96/117/2
f 14/14/4 138/176/4 15/15/4
f 51/51/2 112/140/2 110/137/2
f 10/10/1 80/90/1 1/1/1
f 34/34/5 187/250/5 111/139/5
f 76/84/6 178/233/6 78/87/6
f 6/6/7 133/170/7 7/7/7
f 21/21/2 73/78/2 22/22/2
f 28/28/2 90/107/2 29/29/2
f 50/50/2 66/68/2 17/17/2
f 39/39/8 145/185/8 40/40/8
f 52/52/2 110/137/2 108/134/2
f 41/41/9 164/209/9 43/43/9
f 115/145/10 189/254/10 116/147/10
f 95/116/11 182/240/11 93/112/11
f 20/20/2 71/74/2 21/21/2
f 30/30/2 90/107/2 88/103/2
f 64/64/2 127/163/2 58/58/2
f 13/13/12 150/190/12 14/14/12
f 53/53/2 108/134/2 106/131/2
f 74/81/13 177/230/13 76/84/13
f 7/7/14 132/169/14 8/8/14
f 38/38/15 157/200/15 39/39/15
f 19/19/2 69/71/2 20/20/2
f 30/30/2 86/100/2 31/31/2
f 64/64/2 123/157/2 125/160/2
f 43/43/6 162/207/6 44/44/6
f 54/54/2 106/131/2 104/129/2
f 93/112/8 137/174/8 91/109/8
f 127/163/16 111/139/16 112/140/16
f 83/94/17 115/145/17 114/143/17
f 95/116/18 79/88/18 80/89/18
f 67/69/19 65/66/19 66/67/19
f 68/70/20 69/72/20 65/66/20
f 70/73/21 71/75/21 69/72/21
f 72/76/22 73/79/22 71/75/22
f 74/81/23 75/82/23 73/77/23
f 76/84/6 77/85/6 75/82/6
f 78/87/24 79/88/24 77/85/24
f 83/94/25 81/91/25 82/92/25
f 84/96/26 85/98/26 81/91/26
f 86/99/27 87/102/27 85/98/27
f 88/105/28 89/106/28 87/101/28
f 90/108/29 91/109/29 89/106/29
f 92/111/8 93/112/8 91/109/8
f 94/114/11 95/116/11 93/112/11
f 99/120/30 97/118/30 98/119/30
f 100/122/31 101/124/31 97/118/31
f 102/125/32 103/127/32 101/124/32
f 104/128/12 105/130/12 103/127/12
f 106/132/33 107/133/33 105/130/33
f 108/135/34 109/136/34 107/133/34
f 110/138/35 111/139/35 109/136/35
f 115/145/10 113/141/10 114/143/10
f 116/147/14 117/148/14 113/141/14
f 118/150/7 119/151/7 117/148/7
f 120/153/36 121/154/36 119/151/36
f 122/156/37 123/158/37 121/154/37
f 124/159/38 125/161/38 123/158/38
f 126/162/39 127/163/39 125/161/39
f 99/120/40 67/69/40 66/67/40
f 59/59/2 114/144/2 113/142/2
f 12/12/32 149/189/32 13/13/32
f 42/42/1 82/93/1 9/9/1
f 72/76/22 176/228/22 74/80/22
f 57/57/2 83/95/2 114/144/2
f 8/8/41 131/168/41 2/2/41
f 27/27/2 96/117/2 94/113/2
f 23/23/2 77/86/2 24/24/2
f 58/58/2 112/140/2 49/49/2
f 111/139/35 144/183/35 109/136/35
f 60/60/2 113/142/2 117/149/2
f 37/37/28 158/201/28 38/38/28
f 98/119/40 174/224/40 67/69/40
f 24/24/2 79/88/2 18/18/2
f 56/56/2 99/121/2 50/50/2
f 44/44/13 173/222/13 45/45/13
f 61/61/2 117/149/2 119/152/2
f 91/109/15 151/192/15 89/106/15
f 11/11/31 148/188/31 12/12/31
f 70/73/21 141/179/21 72/76/21
f 56/56/2 102/126/2 100/123/2
f 61/61/2 121/155/2 62/62/2
f 32/32/2 83/95/2 26/26/2
f 109/136/34 156/199/34 107/133/34
f 128/164/42 146/186/42 41/41/42
f 55/55/2 104/129/2 102/126/2
f 36/36/27 163/208/27 37/37/27
f 19/19/2 66/68/2 65/65/2
f 63/63/2 121/155/2 123/157/2
f 31/31/2 84/97/2 32/32/2
f 126/162/39 147/187/39 128/164/39
f 45/45/22 171/219/22 46/46/22
f 152/193/1 137/175/1 182/241/1
f 134/171/1 176/229/1 141/180/1
f 145/185/1 187/250/1 166/212/1
f 138/176/1 151/191/1 137/175/1
f 133/170/1 141/180/1 154/195/1
f 157/200/1 144/184/1 145/185/1
f 164/209/1 147/187/1 165/210/1
f 149/189/1 151/191/1 150/190/1
f 132/169/1 154/195/1 175/225/1
f 158/201/1 156/198/1 157/200/1
f 164/209/1 161/205/1 162/207/1
f 149/189/1 172/220/1 170/216/1
f 132/169/1 174/223/1 131/168/1
f 135/172/1 177/231/1 176/229/1
f 152/193/1 183/243/1 153/194/1
f 168/214/1 188/252/1 167/213/1
f 136/173/1 178/232/1 177/231/1
f 155/197/1 129/165/1 184/244/1
f 169/215/1 189/253/1 168/214/1
f 139/177/1 179/235/1 178/232/1
f 171/219/1 190/255/1 169/215/1
f 155/197/1 185/246/1 160/204/1
f 142/181/1 181/239/1 180/236/1
f 171/219/1 192/259/1 191/257/1
f 160/204/1 186/248/1 163/208/1
f 148/188/1 180/236/1 172/220/1
f 162/207/1 192/259/1 173/222/1
f 163/208/1 159/202/1 158/201/1
f 97/118/30 129/166/30 98/119/30
f 116/147/14 190/256/14 118/150/14
f 10/10/43 183/243/43 95/115/43
f 40/40/44 166/212/44 34/34/44
f 5/5/36 134/171/36 6/6/36
f 78/87/24 179/234/24 80/89/24
f 80/90/45 140/178/45 1/1/45
f 15/15/34 152/193/34 16/16/34
f 118/150/7 191/258/7 120/153/7
f 101/124/31 184/245/31 97/118/31
f 81/91/25 181/238/25 82/92/25
f 4/4/46 135/172/46 5/5/46
f 16/16/47 153/194/47 10/10/47
f 48/48/48 167/213/48 42/42/48
f 120/153/36 192/260/36 122/156/36
f 103/127/32 185/247/32 101/124/32
f 3/3/38 136/173/38 4/4/38
f 85/98/26 180/237/26 81/91/26
f 33/33/49 155/197/49 35/35/49
f 47/47/20 168/214/20 48/48/20
f 122/156/37 161/206/37 124/159/37
f 105/130/12 186/249/12 103/127/12
f 67/69/19 175/226/19 68/70/19
f 1/1/50 139/177/50 3/3/50
f 87/102/27 172/221/27 85/98/27
f 42/42/51 188/252/51 115/146/51
f 46/46/21 169/215/21 47/47/21
f 124/159/38 165/211/38 126/162/38
f 35/35/26 160/204/26 36/36/26
f 107/133/4 159/203/4 105/130/4
f 9/9/52 142/181/52 11/11/52
f 68/70/20 154/196/20 70/73/20
f 82/93/53 143/182/53 9/9/53
f 89/106/28 170/218/28 87/101/28
f 41/41/1 34/34/1 111/139/1
f 22/22/2 73/78/2 75/83/2
f 27/27/2 94/113/2 92/110/2
f 50/50/2 17/17/2 19/19/2
f 19/19/54 20/20/54 21/21/54
f 21/21/2 22/22/2 23/23/2
f 23/23/3 24/24/3 18/18/3
f 18/18/2 25/25/2 27/27/2
f 27/27/2 28/28/2 29/29/2
f 29/29/54 30/30/54 31/31/54
f 31/31/2 32/32/2 26/26/2
f 26/26/2 57/57/2 59/59/2
f 59/59/2 60/60/2 61/61/2
f 61/61/3 62/62/3 63/63/3
f 63/63/3 64/64/3 58/58/3
f 58/58/3 49/49/3 51/51/3
f 51/51/2 52/52/2 53/53/2
f 53/53/2 54/54/2 55/55/2
f 55/55/2 56/56/2 50/50/2
f 50/50/2 19/19/2 21/21/2
f 21/21/2 23/23/2 18/18/2
f 18/18/2 27/27/2 29/29/2
f 29/29/2 31/31/2 26/26/2
f 26/26/2 59/59/2 61/61/2
f 61/61/2 63/63/2 58/58/2
f 58/58/2 51/51/2 53/53/2
f 53/53/2 55/55/2 50/50/2
f 50/50/2 21/21/2 18/18/2
f 18/18/2 29/29/2 26/26/2
f 26/26/2 61/61/2 58/58/2
f 58/58/2 53/53/2 50/50/2
f 50/50/2 18/18/2 26/26/2
f 25/25/2 18/18/2 79/88/2
f 14/14/33 150/190/33 138/176/33
f 51/51/2 49/49/2 112/140/2
f 10/10/1 95/115/1 80/90/1
f 34/34/5 166/212/5 187/250/5
f 76/84/6 177/230/6 178/233/6
f 6/6/7 134/171/7 133/170/7
f 21/21/2 71/74/2 73/78/2
f 28/28/2 92/110/2 90/107/2
f 50/50/2 99/121/2 66/68/2
f 39/39/8 157/200/8 145/185/8
f 52/52/2 51/51/2 110/137/2
f 41/41/9 146/186/9 164/209/9
f 115/145/10 188/251/10 189/254/10
f 95/116/11 183/242/11 182/240/11
f 20/20/2 69/71/2 71/74/2
f 30/30/2 29/29/2 90/107/2
f 64/64/2 125/160/2 127/163/2
f 13/13/12 149/189/12 150/190/12
f 53/53/2 52/52/2 108/134/2
f 74/81/23 176/227/23 177/230/23
f 7/7/14 133/170/14 132/169/14
f 38/38/29 158/201/29 157/200/29
f 19/19/2 65/65/2 69/71/2
f 30/30/2 88/103/2 86/100/2
f 64/64/54 63/63/54 123/157/54
f 43/43/6 164/209/6 162/207/6
f 54/54/2 53/53/2 106/131/2
f 93/112/8 182/240/8 137/174/8
f 127/163/16 128/164/16 111/139/16
f 83/94/17 82/92/17 115/145/17
f 95/116/18 96/117/18 79/88/18
f 67/69/19 68/70/19 65/66/19
f 68/70/20 70/73/20 69/72/20
f 70/73/21 72/76/21 71/75/21
f 72/76/22 74/80/22 73/79/22
f 74/81/23 76/84/23 75/82/23
f 76/84/6 78/87/6 77/85/6
f 78/87/24 80/89/24 79/88/24
f 83/94/25 84/96/25 81/91/25
f 84/96/26 86/99/26 85/98/26
f 86/99/27 88/104/27 87/102/27
f 88/105/28 90/108/28 89/106/28
f 90/108/15 92/111/15 91/109/15
f 92/111/8 94/114/8 93/112/8
f 94/114/11 96/117/11 95/116/11
f 99/120/30 100/122/30 97/118/30
f 100/122/31 102/125/31 101/124/31
f 102/125/32 104/128/32 103/127/32
f 104/128/12 106/132/12 105/130/12
f 106/132/33 108/135/33 107/133/33
f 108/135/34 110/138/34 109/136/34
f 110/138/35 112/140/35 111/139/35
f 115/145/10 116/147/10 113/141/10
f 116/147/14 118/150/14 117/148/14
f 118/150/7 120/153/7 119/151/7
f 120/153/36 122/156/36 121/154/36
f 122/156/37 124/159/37 123/158/37
f 124/159/38 126/162/38 125/161/38
f 126/162/39 128/164/39 127/163/39
f 99/120/40 98/119/40 67/69/40
f 59/59/2 57/57/2 114/144/2
f 12/12/32 148/188/32 149/189/32
f 42/42/1 115/146/1 82/93/1
f 72/76/22 141/179/22 176/228/22
f 57/57/2 26/26/2 83/95/2
f 8/8/41 132/169/41 131/168/41
f 27/27/2 25/25/2 96/117/2
f 23/23/2 75/83/2 77/86/2
f 58/58/2 127/163/2 112/140/2
f 111/139/35 187/250/35 144/183/35
f 60/60/2 59/59/2 113/142/2
f 37/37/28 163/208/28 158/201/28
f 98/119/40 129/166/40 174/224/40
f 24/24/2 77/86/2 79/88/2
f 56/56/2 100/123/2 99/121/2
f 44/44/23 162/207/23 173/222/23
f 61/61/2 60/60/2 117/149/2
f 91/109/29 137/174/29 151/192/29
f 11/11/31 142/181/31 148/188/31
f 70/73/21 154/196/21 141/179/21
f 56/56/2 55/55/2 102/126/2
f 61/61/2 119/152/2 121/155/2
f 32/32/2 84/97/2 83/95/2
f 109/136/34 144/183/34 156/199/34
f 128/164/42 147/187/42 146/186/42
f 55/55/2 54/54/2 104/129/2
f 36/36/27 160/204/27 163/208/27
f 19/19/2 17/17/2 66/68/2
f 63/63/2 62/62/2 121/155/2
f 31/31/2 86/100/2 84/97/2
f 126/162/39 165/211/39 147/187/39
f 45/45/22 173/222/22 171/219/22
f 152/193/1 138/176/1 137/175/1
f 134/171/1 135/172/1 176/229/1
f 145/185/1 144/184/1 187/250/1
f 138/176/1 150/190/1 151/191/1
f 133/170/1 134/171/1 141/180/1
f 157/200/1 156/198/1 144/184/1
f 164/209/1 146/186/1 147/187/1
f 149/189/1 170/216/1 151/191/1
f 132/169/1 133/170/1 154/195/1
f 158/201/1 159/202/1 156/198/1
f 164/209/1 165/210/1 161/205/1
f 149/189/1 148/188/1 172/220/1
f 132/169/1 175/225/1 174/223/1
f 135/172/1 136/173/1 177/231/1
f 152/193/1 182/241/1 183/243/1
f 168/214/1 189/253/1 188/252/1
f 136/173/1 139/177/1 178/232/1
f 155/197/1 130/167/1 129/165/1
f 169/215/1 190/255/1 189/253/1
f 139/177/1 140/178/1 179/235/1
f 171/219/1 191/257/1 190/255/1
f 155/197/1 184/244/1 185/246/1
f 142/181/1 143/182/1 181/239/1
f 171/219/1 173/222/1 192/259/1
f 160/204/1 185/246/1 186/248/1
f 148/188/1 142/181/1 180/236/1
f 162/207/1 161/205/1 192/259/1
f 163/208/1 186/248/1 159/202/1
f 97/118/30 184/245/30 129/166/30
f 116/147/14 189/254/14 190/256/14
f 10/10/43 153/194/43 183/243/43
f 40/40/44 145/185/44 166/212/44
f 5/5/36 135/172/36 134/171/36
f 78/87/24 178/233/24 179/234/24
f 80/90/45 179/235/45 140/178/45
f 15/15/34 138/176/34 152/193/34
f 118/150/7 190/256/7 191/258/7
f 101/124/31 185/247/31 184/245/31
f 81/91/25 180/237/25 181/238/25
f 4/4/46 136/173/46 135/172/46
f 16/16/47 152/193/47 153/194/47
f 48/48/48 168/214/48 167/213/48
f 120/153/36 191/258/36 192/260/36
f 103/127/32 186/249/32 185/247/32
f 3/3/38 139/177/38 136/173/38
f 85/98/26 172/221/26 180/237/26
f 33/33/49 130/167/49 155/197/49
f 47/47/20 169/215/20 168/214/20
f 122/156/46 192/260/46 161/206/46
f 105/130/12 159/203/12 186/249/12
f 67/69/19 174/224/19 175/226/19
f 1/1/55 140/178/55 139/177/55
f 87/102/27 170/217/27 172/221/27
f 42/42/56 167/213/56 188/252/56
f 46/46/21 171/219/21 169/215/21
f 124/159/38 161/206/38 165/211/38
f 35/35/26 155/197/26 160/204/26
f 107/133/33 156/199/33 159/203/33
f 9/9/52 143/182/52 142/181/52
f 68/70/20 175/226/20 154/196/20
f 82/93/57 181/239/57 143/182/57
f 89/106/28 151/192/28 170/218/28
