# Blender 3.4.1
# www.blender.org
mtllib windows.mtl
o windows
v 2.612427 2.166253 -6.159729
v 1.029572 2.166253 -6.159719
v 1.029572 1.129786 -6.159719
v 2.612427 1.129786 -6.159729
v 4.037152 1.185165 -3.883782
v 4.037152 2.083170 -3.883782
v 4.037148 2.083168 -1.992464
v 4.037148 1.185163 -1.992464
v 4.037142 2.162959 0.557441
v 4.037142 1.200029 0.557441
v 4.037145 2.162959 -0.665102
v 4.037145 1.200029 -0.665102
v 4.037138 1.196938 2.534964
v 4.037138 2.111951 2.534964
v 4.037141 1.196938 1.170324
v 4.037141 2.111951 1.170324
v 4.037131 2.166382 5.763330
v 4.037131 1.219405 5.763330
v 4.037134 2.166383 4.176953
v 4.037134 1.219406 4.176953
v 1.112723 2.219614 8.189384
v 1.112723 1.235653 8.189384
v 2.953857 2.219614 8.189400
v 2.953857 1.235653 8.189400
v -3.699739 1.961617 8.190391
v -3.693032 1.977809 8.190391
v -3.699739 0.995050 8.190391
v -3.676841 1.984516 8.190391
v -2.809300 1.984516 8.190396
v -3.693032 0.978859 8.190391
v -3.676841 0.972152 8.190391
v -2.809300 0.972152 8.190396
v -2.793109 1.977809 8.190396
v -2.786402 1.961617 8.190396
v -2.786402 0.995050 8.190396
v -2.793109 0.978859 8.190396
v -3.695620 1.961617 -6.157758
v -3.688168 1.977809 -6.157758
v -3.695620 0.995050 -6.157758
v -3.670178 1.984516 -6.157758
v -2.706253 1.984516 -6.157752
v -3.688168 0.978859 -6.157758
v -3.670178 0.972152 -6.157758
v -2.706253 0.972152 -6.157752
v -2.688262 1.977809 -6.157752
v -2.680810 1.961617 -6.157752
v -2.680810 0.995050 -6.157752
v -2.688262 0.978859 -6.157752
vn -0.0000 -0.0000 1.0000
vn -1.0000 -0.0000 -0.0000
vn -0.0000 -0.0000 -1.0000
vt 0.000000 0.000000
vt 0.000000 0.000000
vt 0.000000 0.000000
vt 0.000000 0.000000
vt 0.000000 0.000000
vt 0.000000 0.000000
vt 0.000000 0.000000
vt 0.000000 0.000000
vt 0.000000 0.000000
vt 0.000000 0.000000
vt 0.000000 0.000000
vt 0.000000 0.000000
vt 0.000000 0.000000
vt 0.000000 0.000000
vt 0.000000 0.000000
vt 0.000000 0.000000
vt 0.000000 0.000000
vt 0.000000 0.000000
vt 0.000000 0.000000
vt 0.000000 0.000000
vt 0.000000 0.000000
vt 0.000000 0.000000
vt 0.000000 0.000000
vt 0.000000 0.000000
vt 0.000000 0.000000
vt 0.000000 0.000000
vt 0.000000 0.000000
vt 0.000000 0.000000
vt 0.000000 0.000000
vt 0.000000 0.000000
vt 0.000000 0.000000
vt 0.000000 0.000000
vt 0.000000 0.000000
vt 0.000000 0.000000
vt 0.000000 0.000000
vt 0.000000 0.000000
vt 0.000000 0.000000
vt 0.000000 0.000000
vt 0.000000 0.000000
vt 0.000000 0.000000
vt 0.000000 0.000000
vt 0.000000 0.000000
vt 0.000000 0.000000
vt 0.000000 0.000000
vt 0.000000 0.000000
vt 0.000000 0.000000
vt 0.000000 0.000000
vt 0.000000 0.000000
s 0
usemtl Glass
f 2/2/1 3/3/1 4/4/1 1/1/1
f 7/7/2 6/6/2 5/5/2 8/8/2
f 11/11/2 12/12/2 10/10/2 9/9/2
f 13/13/2 14/14/2 16/16/2 15/15/2
f 19/19/2 20/20/2 18/18/2 17/17/2
f 24/24/3 22/22/3 21/21/3 23/23/3
f 31/31/1 32/32/1 36/36/1 35/35/1 34/34/1 33/33/1 29/29/1 28/28/1 26/26/1 25/25/1 27/27/1 30/30/1
f 43/43/1 44/44/1 48/48/1 47/47/1 46/46/1 45/45/1 41/41/1 40/40/1 38/38/1 37/37/1 39/39/1 42/42/1
